<?xml version="1.0" standalone="no"?>
<!DOCTYPE svg PUBLIC "-//W3C//DTD SVG 1.1//EN" "http://www.w3.org/Graphics/SVG/1.1/DTD/svg11.dtd" >
<svg xmlns="http://www.w3.org/2000/svg">
<metadata>Generated by IcoMoon</metadata>
<defs>
<font id="icomoon" horiz-adv-x="1024">
<font-face units-per-em="1024" ascent="960" descent="-64" />
<missing-glyph horiz-adv-x="1024" />
<glyph unicode="&#x20;" horiz-adv-x="512" d="" />
<glyph unicode="&#xe900;" d="M119.886 783.275v-563.364h532.15l154.543-146.753h13.546v146.753h84.045v563.364z" />
<glyph unicode="&#xe901;" d="M484.964 403.635h54.073v-48.993h-54.073z" />
<glyph unicode="&#xe902;" d="M484.964 648.601h54.073v-195.972h-54.073z" />
<glyph unicode="&#xe903;" d="M539.036 807.602v-48.993h338.041v-514.371h-84.045v-123.104l-129.425 123.104h-516.854v514.54h338.21v48.824h-392.114v-612.187h547.503l154.543-146.753h52.154v146.753h84.27v612.187z" />
<glyph unicode="&#xe904;" d="M856.193 704.818c-4.563 5.612-11.458 9.175-19.187 9.2h-606.999c-8.104-0.024-15.294-3.916-19.822-9.927l-0.046-0.063c-3.209-4.309-5.137-9.737-5.137-15.616 0-2.354 0.309-4.636 0.889-6.807l-0.042 0.184 79.981-306.15c2.787-10.956 12.529-18.943 24.149-19.021h1.251l477.005 24.553c11.787 0.746 21.334 9.464 23.345 20.788l0.022 0.153 50.009 281.597c0.275 1.416 0.432 3.045 0.432 4.711 0 6.243-2.208 11.971-5.886 16.444l0.036-0.045z" />
<glyph unicode="&#xe905;" d="M686.975 458.047c-13.845 0.158-25.007 11.418-25.007 25.285 0 0.12 0.001 0.239 0.002 0.358v-0.018 102.389c0 13.81 11.195 25.005 25.005 25.005s25.005-11.195 25.005-25.005v0-102.445c0.001-0.084 0.002-0.184 0.002-0.284 0-13.867-11.162-25.127-24.991-25.285h-0.015z" />
<glyph unicode="&#xe906;" d="M537.005 458.047c-13.845 0.158-25.007 11.418-25.007 25.285 0 0.12 0.001 0.239 0.002 0.358v-0.018 102.389c0 13.81 11.195 25.005 25.005 25.005s25.005-11.195 25.005-25.005v0-102.445c0.001-0.084 0.002-0.184 0.002-0.284 0-13.867-11.162-25.127-24.991-25.285h-0.015z" />
<glyph unicode="&#xe907;" d="M386.977 458.047c-13.845 0.158-25.007 11.418-25.007 25.285 0 0.12 0.001 0.239 0.002 0.358v-0.018 102.389c0 13.81 11.195 25.005 25.005 25.005s25.005-11.195 25.005-25.005v0-102.445c0.001-0.084 0.002-0.184 0.002-0.284 0-13.867-11.162-25.127-24.991-25.285h-0.015z" />
<glyph unicode="&#xe908;" d="M461.991 125.255c0-42.426-33.585-76.82-75.014-76.82s-75.014 34.393-75.014 76.82c0 42.426 33.585 76.82 75.014 76.82s75.014-34.393 75.014-76.82z" />
<glyph unicode="&#xe909;" d="M761.989 125.255c0-42.426-33.585-76.82-75.014-76.82s-75.014 34.393-75.014 76.82c0 42.426 33.585 76.82 75.014 76.82s75.014-34.393 75.014-76.82z" />
<glyph unicode="&#xe90a;" d="M736.984 253.27h-400.016c-11.629 0.079-21.37 8.066-24.12 18.848l-0.038 0.173-128.522 492.922h-97.309c-13.626 0.66-24.423 11.868-24.423 25.597s10.798 24.937 24.364 25.595l0.059 0.002h116.5c11.629-0.079 21.37-8.066 24.12-18.848l0.038-0.173 128.522-492.979h380.769c13.626-0.66 24.423-11.868 24.423-25.597s-10.798-24.937-24.364-25.595l-0.059-0.002z" />
<glyph unicode="&#xe90b;" d="M884.471 302.206h-745.056c-0.258-0.009-0.56-0.015-0.864-0.015-13.851 0-25.142 10.966-25.663 24.689l-0.001 0.047v419.658h798.226v-419.658c-0.521-13.773-11.812-24.741-25.665-24.741-0.344 0-0.685 0.007-1.026 0.020l0.049-0.002z" />
<glyph unicode="&#xe90c;" d="M711.528 289.901l141.109-130.836c-37.149-33.746-86.716-54.406-141.109-54.406s-103.96 20.66-141.282 54.561l0.173-0.155z" />
<glyph unicode="&#xe90d;" d="M711.528 475.036v-185.135l-141.109-130.836c-35.769 32.432-58.23 78.982-58.532 130.782v0.055c0 4.177 0 8.297 0.508 12.361 6.886 96.519 93.527 172.774 199.133 172.774z" />
<glyph unicode="&#xe90e;" d="M711.528 475.036c110.178 0 199.528-82.972 199.528-185.135-0.364-51.886-22.904-98.437-58.603-130.699l-0.154-0.137-141.109 130.836z" />
<glyph unicode="&#xe90f;" d="M405.547 475.036v-98.776c-0.614-13.758-11.917-24.679-25.771-24.679-0.286 0-0.572 0.005-0.856 0.014l0.041-0.001h-186.264c-0.243-0.008-0.528-0.013-0.814-0.013-13.854 0-25.156 10.921-25.769 24.624l-0.002 0.055v98.776c0.614 13.758 11.917 24.679 25.771 24.679 0.286 0 0.572-0.005 0.856-0.014l-0.041 0.001h186.264c0.243 0.008 0.528 0.013 0.814 0.013 13.854 0 25.156-10.921 25.769-24.624l0.002-0.055z" />
<glyph unicode="&#xe910;" d="M405.547 672.533v-98.776c-0.614-13.758-11.917-24.679-25.771-24.679-0.286 0-0.572 0.005-0.856 0.014l0.041-0.001h-186.264c-0.243-0.008-0.528-0.013-0.814-0.013-13.854 0-25.156 10.921-25.769 24.624l-0.002 0.055v98.776c0.614 13.758 11.917 24.679 25.771 24.679 0.286 0 0.572-0.005 0.856-0.014l-0.041 0.001h186.264c0.243 0.008 0.528 0.013 0.814 0.013 13.854 0 25.156-10.921 25.769-24.624l0.002-0.055z" />
<glyph unicode="&#xe911;" d="M112.887 746.587v74.054c0.614 13.758 11.917 24.679 25.771 24.679 0.286 0 0.572-0.005 0.856-0.014l-0.041 0.001h745.056c0.243 0.008 0.528 0.013 0.814 0.013 13.854 0 25.156-10.921 25.769-24.624l0.002-0.055v-74.054z" />
<glyph unicode="&#xe912;" d="M884.471 857.668h-745.056c-0.396 0.015-0.862 0.023-1.33 0.023-20.775 0-37.717-16.408-38.573-36.972l-0.003-0.078v-493.769c0.859-20.641 17.801-37.050 38.576-37.050 0.468 0 0.933 0.008 1.397 0.025l-0.067-0.002h359.264c0-108.88 95.503-197.553 212.849-197.553s212.849 88.616 212.849 197.553v530.57c-0.738 20.741-17.731 37.275-38.584 37.275-0.465 0-0.927-0.008-1.388-0.024l0.067 0.002zM139.416 833.002h745.056c0.138 0.005 0.299 0.008 0.461 0.008 6.932 0 12.583-5.48 12.859-12.344l0.001-0.025v-61.693h-771.584v61.693c0.276 6.889 5.928 12.369 12.859 12.369 0.162 0 0.324-0.003 0.484-0.009l-0.023 0.001zM698.207 294.981l-127.28-118.080c-28.039 29.307-45.386 69.045-45.663 112.833v0.054c0 91.1 76.481 165.831 172.943 172.153zM589.723 159.517l121.805 112.887 121.805-112.887c-33.122-26.404-75.585-42.367-121.777-42.367s-88.655 15.963-122.174 42.673l0.397-0.306zM852.299 176.901l-127.28 118.080v167.073c96.462-6.378 172.943-81.053 172.943-172.153-0.246-43.883-17.599-83.666-45.721-113.061l0.058 0.061zM711.697 487.341c-108.315 0-197.835-75.522-210.986-172.83h-361.239c-0.138-0.005-0.299-0.008-0.461-0.008-6.932 0-12.583 5.48-12.859 12.344l-0.001 0.025v407.354h771.584v-348.991c-36.293 61.128-106.114 102.163-186.207 102.163z" />
<glyph unicode="&#xe913;" d="M578.491 289.901c0 54.976 39.511 103.856 96.744 118.532l-7.225 23.763c-68.353-17.723-116.105-76.142-116.105-142.294z" />
<glyph unicode="&#xe914;" d="M554.558 262.978c2.058-10.248 4.903-19.26 8.586-27.827l-0.345 0.903 24.779 8.975c-2.791 6.427-5.169 13.985-6.76 21.83l-0.127 0.748z" />
<glyph unicode="&#xe915;" d="M839.034 325.179l25.513 7.055c-3.124 9.636-6.775 17.906-11.147 25.718l0.367-0.713-23.706-11.289c3.334-5.897 6.373-12.767 8.738-19.943l0.236-0.828z" />
<glyph unicode="&#xe916;" d="M844.566 289.901q0-4.572-0.339-9.087l26.528-1.806c0 3.612 0.452 7.225 0.452 10.894 0 0.045 0 0.099 0 0.152 0 5.575-0.328 11.073-0.966 16.476l0.063-0.655-26.472-2.653c0.467-3.969 0.734-8.566 0.734-13.225 0-0.033 0-0.067 0-0.1v0.005z" />
<glyph unicode="&#xe917;" d="M832.092 237.522l24.101-10.442c3.708 7.174 7.053 15.585 9.575 24.344l0.246 0.999-25.738 6.209c-2.301-8.103-5.088-15.090-8.49-21.709l0.306 0.655z" />
<glyph unicode="&#xe918;" d="M259.246 808.336h26.585v-24.666h-26.585z" />
<glyph unicode="&#xe919;" d="M206.019 808.336h26.585v-24.666h-26.585z" />
<glyph unicode="&#xe91a;" d="M152.793 808.336h26.585v-24.666h-26.585z" />
<glyph unicode="&#xe91b;" d="M378.962 709.56h-186.264c-0.396 0.015-0.862 0.023-1.33 0.023-20.775 0-37.717-16.408-38.573-36.972l-0.003-0.078v-98.776c0.829-20.667 17.784-37.106 38.578-37.106 0.467 0 0.932 0.008 1.395 0.025l-0.067-0.002h186.264c0.396-0.015 0.862-0.023 1.33-0.023 20.775 0 37.717 16.408 38.573 36.972l0.003 0.078v98.833c-0.859 20.641-17.801 37.050-38.576 37.050-0.468 0-0.933-0.008-1.397-0.025l0.067 0.002zM392.283 573.813c-0.276-6.889-5.928-12.369-12.859-12.369-0.162 0-0.324 0.003-0.484 0.009l0.023-0.001h-186.264c-0.138-0.005-0.299-0.008-0.461-0.008-6.932 0-12.583 5.48-12.859 12.344l-0.001 0.025v98.72c0.276 6.889 5.928 12.369 12.859 12.369 0.162 0 0.324-0.003 0.484-0.009l-0.023 0.001h186.264c0.138 0.005 0.299 0.008 0.461 0.008 6.932 0 12.583-5.48 12.859-12.344l0.001-0.025z" />
<glyph unicode="&#xe91c;" d="M378.962 512.063h-186.264c-0.396 0.015-0.862 0.023-1.33 0.023-20.775 0-37.717-16.408-38.573-36.972l-0.003-0.078v-98.776c0.799-20.691 17.766-37.163 38.58-37.163 0.466 0 0.93 0.008 1.392 0.025l-0.067-0.002h186.264c0.396-0.015 0.862-0.023 1.33-0.023 20.775 0 37.717 16.408 38.573 36.972l0.003 0.078v98.889c-0.859 20.641-17.801 37.050-38.576 37.050-0.468 0-0.933-0.008-1.397-0.025l0.067 0.002zM392.283 376.26c-0.276-6.889-5.928-12.369-12.859-12.369-0.162 0-0.324 0.003-0.484 0.009l0.023-0.001h-186.264c-0.138-0.005-0.299-0.008-0.461-0.008-6.932 0-12.583 5.48-12.859 12.344l-0.001 0.025v98.776c0.276 6.889 5.928 12.369 12.859 12.369 0.162 0 0.324-0.003 0.484-0.009l-0.023 0.001h186.264c0.138 0.005 0.299 0.008 0.461 0.008 6.932 0 12.583-5.48 12.859-12.344l0.001-0.025z" />
<glyph unicode="&#xe91d;" d="M299.151 615.694l-39.906 37.253-62.596-58.080 18.796-17.441 43.8 40.639 39.906-37.027 75.917 70.442-18.796 17.441z" />
<glyph unicode="&#xe91e;" d="M339.057 462.675h-26.585v-49.388h-26.641v24.722h-26.585v-24.666h-26.585v49.332h-26.641v-74.054h159.623v24.722h-26.585z" />
<glyph unicode="&#xe91f;" d="M472.094 709.56h26.585v-24.666h-26.585z" />
<glyph unicode="&#xe920;" d="M525.321 709.56h345.886v-24.666h-345.886z" />
<glyph unicode="&#xe921;" d="M472.094 660.172h399.113v-24.666h-399.113z" />
<glyph unicode="&#xe922;" d="M472.094 610.84h79.811v-24.666h-79.811z" />
<glyph unicode="&#xe923;" d="M578.491 610.84h292.66v-24.666h-292.66z" />
<glyph unicode="&#xe924;" d="M472.094 561.452h239.434v-24.779h-239.434z" />
<glyph unicode="&#xe925;" d="M738.17 561.452h26.585v-24.779h-26.585z" />
<glyph unicode="&#xe926;" d="M844.566 561.452h26.585v-24.779h-26.585z" />
<glyph unicode="&#xe927;" d="M791.339 561.452h26.585v-24.779h-26.585z" />
<glyph unicode="&#xe928;" d="M881.141 241.699c-0.383-103.277-84.003-186.896-187.243-187.28h-373.355c-103.277 0.383-186.896 84.003-187.28 187.243v373.411c0.383 103.277 84.003 186.896 187.243 187.28h373.411c103.277-0.383 186.896-84.003 187.28-187.243v-0.037z" />
<glyph unicode="&#xe929;" d="M447.937 196.826h89.181v231.419h70.611l8.354 95.107h-72.982v35.898c0 17.949 11.289 23.932 19.755 23.932h51.477v77.949h-73.038c-80.15 0-99.341-59.83-99.341-97.535v-40.696h-41.204v-94.543h47.243v-231.419z" />
<glyph unicode="&#xe92a;" d="M537.117 190.843h-89.181c-0.104-0.007-0.227-0.011-0.349-0.011-3.117 0-5.644 2.527-5.644 5.644 0 0.123 0.004 0.245 0.012 0.366l-0.001-0.017v225.774h-41.204c-0.104-0.007-0.227-0.011-0.349-0.011-3.117 0-5.644 2.527-5.644 5.644 0 0.123 0.004 0.245 0.012 0.366l-0.001-0.017v94.938c-0.007 0.104-0.011 0.227-0.011 0.349 0 3.117 2.527 5.644 5.644 5.644 0.123 0 0.245-0.004 0.366-0.012l-0.017 0.001h35.277v34.713c0 49.67 27.544 103.518 105.324 103.518h72.982c0.104 0.007 0.227 0.011 0.349 0.011 3.117 0 5.644-2.527 5.644-5.644 0-0.123-0.004-0.245-0.012-0.366l0.001 0.017v-79.021c0.007-0.104 0.011-0.227 0.011-0.349 0-3.117-2.527-5.644-5.644-5.644-0.123 0-0.245 0.004-0.366 0.012l0.017-0.001h-51.477c-2.992 0-13.772-1.185-13.772-17.949v-29.915h66.999c0.011 0 0.025 0 0.038 0 1.633 0 3.105-0.694 4.135-1.803l0.003-0.004c1.121-1.205 1.809-2.826 1.809-4.608 0-0.067-0.001-0.133-0.003-0.2v0.010l-8.354-95.107c0-0.003 0-0.007 0-0.010 0-3.117-2.527-5.644-5.644-5.644-0.119 0-0.237 0.004-0.355 0.011l0.016-0.001h-64.628v-71.119c0-3.304-2.679-5.983-5.983-5.983s-5.983 2.679-5.983 5.983v0 77.949c-0.007 0.104-0.011 0.227-0.011 0.349 0 3.117 2.527 5.644 5.644 5.644 0.123 0 0.245-0.004 0.366-0.012l-0.017 0.001h65.192l7.281 83.198h-66.491c-0.104-0.007-0.227-0.011-0.349-0.011-3.117 0-5.644 2.527-5.644 5.644 0 0.123 0.004 0.245 0.012 0.366l-0.001-0.017v35.729c0 20.32 13.151 29.915 25.738 29.915h45.494v66.603h-67.055c-15.578 0-93.358-4.177-93.358-91.552v-40.696c0.007-0.104 0.011-0.227 0.011-0.349 0-3.117-2.527-5.644-5.644-5.644-0.123 0-0.245 0.004-0.366 0.012l0.017-0.001h-35.559v-83.198h41.26c0.104 0.007 0.227 0.011 0.349 0.011 3.117 0 5.644-2.527 5.644-5.644 0-0.123-0.004-0.245-0.012-0.366l0.001 0.017v-225.774h77.497v47.243c0 3.304 2.679 5.983 5.983 5.983s5.983-2.679 5.983-5.983v0-53.226c-0.332-3.114-2.843-5.547-5.963-5.756l-0.020-0.001z" />
<glyph unicode="&#xe92b;" d="M693.861 48.436h-373.318c-106.672 0.16-193.102 86.591-193.263 193.247v373.389c0.16 106.672 86.591 193.102 193.247 193.263h373.389c106.672-0.16 193.102-86.591 193.263-193.247v-373.389c-0.16-106.691-86.623-193.135-193.307-193.263h-0.012zM320.543 796.314c-100.043-0.16-181.105-81.202-181.297-181.222v-373.392c0.16-100.063 81.234-181.136 181.281-181.297h373.389c100.063 0.16 181.136 81.234 181.297 181.281v373.389c-0.193 100.058-81.286 181.112-181.341 181.24h-0.013z" />
<glyph unicode="&#xe92c;" d="M680.71 84.334h-347.015c-92.737 0-170.516 78.4-170.516 171.137v346.451c1.040 93.752 76.764 169.476 170.417 170.515l0.099 0.001h345.83c3.304 0 5.983-2.679 5.983-5.983s-2.679-5.983-5.983-5.983h-345.83c-87.217-0.944-157.679-71.347-158.719-158.451l-0.001-0.099v-347.015c0-86.133 72.982-159.171 158.55-159.171h347.185c86.133 0 158.55 72.982 158.55 159.171v167.468c0 3.304 2.679 5.983 5.983 5.983s5.983-2.679 5.983-5.983v0-167.525c-1.040-93.752-76.764-169.476-170.417-170.515l-0.099-0.001z" />
<glyph unicode="&#xe92d;" d="M795.855 710.801c-0.011 0-0.025 0-0.038 0-1.633 0-3.105 0.694-4.135 1.803l-0.003 0.004c-28.692 29.148-68.417 47.361-112.397 47.863l-0.095 0.001c-3.304 0-5.983 2.679-5.983 5.983s2.679 5.983 5.983 5.983v0c47.358-0.544 90.037-20.134 120.822-51.452l0.024-0.024c1.137-1.036 1.848-2.524 1.848-4.177s-0.711-3.14-1.843-4.173l-0.004-0.004c-0.865-1.117-2.206-1.829-3.714-1.829-0.163 0-0.324 0.008-0.483 0.025l0.020-0.002z" />
<glyph unicode="&#xe92e;" d="M845.243 458.329c-0.104-0.007-0.227-0.011-0.349-0.011-3.117 0-5.644 2.527-5.644 5.644 0 0.123 0.004 0.245 0.012 0.366l-0.001-0.017v88.504c0 3.304 2.679 5.983 5.983 5.983s5.983-2.679 5.983-5.983v0-88.504c0.007-0.104 0.011-0.227 0.011-0.349 0-3.117-2.527-5.644-5.644-5.644-0.123 0-0.245 0.004-0.366 0.012l0.017-0.001z" />
<glyph unicode="&#xe92f;" d="M690.249 733.097h93.132v-162.558h-93.132v162.558z" />
<glyph unicode="&#xe930;" d="M654.689 816.069h164.251v-88.052h-164.251v88.052z" />
<glyph unicode="&#xe931;" d="M153.47 411.368v-374.221h663.777v374.221l-331.832 331.888c-128.748-130.385-201.56-203.197-331.945-331.888z" />
<glyph unicode="&#xe932;" d="M818.94 411.368l-331.888 331.888c-66.039-64.346-116.838-115.145-167.638-165.944l-165.944-165.944v-76.199l331.945 331.888 331.888-331.888v-10.16 86.415h1.693z" />
<glyph unicode="&#xe933;" d="M426.093 37.203h-199.81v196.424c0.128 55.113 44.788 99.753 99.896 99.849h0.009c55.137-0.096 99.809-44.768 99.905-99.896v-0.009z" />
<glyph unicode="&#xe934;" d="M485.359 333.532h260.769v-228.597h-260.769v228.597z" />
<glyph unicode="&#xe935;" d="M512.452 306.439h89.745v-174.411h-89.745v174.411z" />
<glyph unicode="&#xe936;" d="M629.29 306.439h89.745v-174.411h-89.745v174.411z" />
<glyph unicode="&#xe937;" d="M879.899 480.794l-353.901 353.901c-9.894 9.431-23.319 15.234-38.099 15.234s-28.206-5.803-38.122-15.255l0.022 0.021-352.208-353.901c-9.431-9.894-15.234-23.319-15.234-38.099s5.803-28.206 15.255-38.122l-0.021 0.022c9.894-9.431 23.319-15.234 38.099-15.234s28.206 5.803 38.122 15.255l-0.022-0.021 314.955 314.955 314.955-314.955c9.63-9.099 22.656-14.693 36.988-14.693 29.77 0 53.904 24.133 53.904 53.904 0 14.333-5.594 27.359-14.717 37.014l0.024-0.026z" />
<glyph unicode="&#xe938;" d="M895.309 235.264c-0.415-105.821-86.088-191.493-191.869-191.908h-382.784c-105.821 0.415-191.493 86.088-191.908 191.869v382.784c0.415 105.821 86.088 191.493 191.869 191.908h382.728c105.821-0.415 191.493-86.088 191.908-191.869v-0.040z" />
<glyph unicode="&#xe939;" d="M655.31 663.953h-292.547c-0.287 0.003-0.626 0.005-0.965 0.005-49.596 0-89.802-40.206-89.802-89.802 0-0.339 0.002-0.678 0.006-1.016v0.052-293.168c-0.003-0.287-0.005-0.626-0.005-0.965 0-49.596 40.206-89.802 89.802-89.802 0.339 0 0.678 0.002 1.016 0.006h293.060c0.287-0.003 0.626-0.005 0.965-0.005 49.596 0 89.802 40.206 89.802 89.802 0 0.339-0.002 0.678-0.006 1.016v-0.052 293.168c0.003 0.287 0.005 0.626 0.005 0.965 0 49.596-40.206 89.802-89.802 89.802-0.339 0-0.678-0.002-1.016-0.006h0.052zM681.613 610.614h9.821v-80.94h-80.319v80.94zM441.276 475.714c15.189 21.252 39.78 34.94 67.568 34.94 0.177 0 0.353-0.001 0.53-0.002h-0.027c46.417 0 84.045-37.628 84.045-84.045s-37.628-84.045-84.045-84.045c-46.417 0-84.045 37.628-84.045 84.045v0c-0.002 0.223-0.003 0.486-0.003 0.749 0 18.195 5.999 34.989 16.128 48.511l-0.151-0.211zM703.739 280.024c-0.904-26.063-21.801-46.96-47.78-47.862l-0.084-0.002h-293.112c-26.063 0.904-46.96 21.801-47.862 47.78l-0.002 0.084v195.069h73.377c-6.215-13.925-9.835-30.176-9.835-47.272 0-0.625 0.005-1.248 0.014-1.871l-0.001 0.094c0-72.15 58.489-130.639 130.639-130.639s130.639 58.489 130.639 130.639v0c0.005 0.407 0.008 0.888 0.008 1.369 0 17.235-3.616 33.626-10.132 48.454l0.303-0.773h73.377v-195.013z" />
<glyph unicode="&#xe93a;" d="M700.691 37.203h-382.688c-109.352 0.16-197.957 88.764-198.117 198.101v382.704c0.16 109.352 88.764 197.957 198.101 198.117h382.704c109.352-0.16 197.957-88.764 198.117-198.101v-382.704c-0.16-109.352-88.764-197.957-198.101-198.117h-0.016zM318.003 803.821c-102.543-0.224-185.613-83.275-185.869-185.788v-382.712c0.256-102.518 83.294-185.556 185.788-185.812h382.713c102.518 0.256 185.556 83.294 185.812 185.788v382.713c-0.256 102.518-83.294 185.556-185.788 185.812h-0.025z" />
<glyph unicode="&#xe93b;" d="M687.201 73.835h-355.595c-96.152 1.194-173.781 78.823-174.974 174.862l-0.001 0.114v355.595c0.978 96.24 78.735 173.997 174.882 174.974l0.093 0.001h354.466c0.176 0.018 0.381 0.028 0.589 0.028 3.398 0 6.152-2.755 6.152-6.152s-2.755-6.152-6.152-6.152c-0.207 0-0.412 0.010-0.614 0.030l0.026-0.002h-354.579c-89.416-1.040-161.613-73.297-162.557-162.637l-0.001-0.090v-355.595c1.253-89.269 73.288-161.304 162.439-162.556l0.119-0.001h355.595c89.294 1.222 161.36 73.269 162.613 162.439l0.001 0.119v171.701c-0.018 0.176-0.028 0.381-0.028 0.589 0 3.398 2.755 6.152 6.152 6.152s6.152-2.755 6.152-6.152c0-0.207-0.010-0.412-0.030-0.614l0.002 0.026v-171.701c-0.976-96.162-78.606-173.871-174.644-174.974l-0.105-0.001z" />
<glyph unicode="&#xe93c;" d="M804.942 716.107c-0.029-0.001-0.064-0.001-0.099-0.001-1.661 0-3.154 0.717-4.187 1.859l-0.004 0.005c-30.656 29.81-72.362 48.397-118.405 49.048l-0.126 0.001c-0.176-0.018-0.381-0.028-0.589-0.028-3.398 0-6.152 2.755-6.152 6.152s2.755 6.152 6.152 6.152c0.207 0 0.412-0.010 0.614-0.030l-0.026 0.002c49.474-0.728 94.146-20.705 126.979-52.755l-0.037 0.036c1.133-1.081 1.837-2.603 1.837-4.29s-0.704-3.208-1.835-4.288l-0.002-0.002c-0.886-1.144-2.259-1.873-3.803-1.873-0.112 0-0.222 0.004-0.332 0.011l0.015-0.001z" />
<glyph unicode="&#xe93d;" d="M855.854 457.313c-0.156-0.015-0.337-0.024-0.52-0.024-3.117 0-5.644 2.527-5.644 5.644 0 0.128 0.004 0.254 0.013 0.38l-0.001-0.017v90.931c-0.018 0.176-0.028 0.381-0.028 0.589 0 3.398 2.755 6.152 6.152 6.152s6.152-2.755 6.152-6.152c0-0.207-0.010-0.412-0.030-0.614l0.002 0.026v-90.931c0.007-0.107 0.011-0.232 0.011-0.358 0-3.117-2.527-5.644-5.644-5.644-0.163 0-0.324 0.007-0.484 0.020l0.021-0.001z" />
<glyph unicode="&#xe93e;" d="M509.347 336.467c-49.599 0.161-89.745 40.406-89.745 90.027 0 49.721 40.307 90.028 90.028 90.028 49.621 0 89.866-40.146 90.027-89.73v-0.015c0-49.877-40.433-90.31-90.31-90.31v0zM509.347 504.5c-0.009 0-0.020 0-0.031 0-26.005 0-49.044-12.697-63.256-32.231l-0.156-0.224c-9.173-12.5-14.692-28.179-14.732-45.145v-0.009c0-43.019 34.874-77.892 77.892-77.892s77.892 34.874 77.892 77.892v0c0 0.080 0 0.174 0 0.268 0 16.892-5.529 32.493-14.877 45.091l0.144-0.204c-14.265 19.618-37.075 32.273-62.849 32.455h-0.029z" />
<glyph unicode="&#xe93f;" d="M655.875 226.233h-293.112c-29.513 0.707-53.253 24.447-53.959 53.893l-0.001 0.067v194.9c-0.016 0.16-0.025 0.345-0.025 0.533 0 3.117 2.527 5.644 5.644 5.644 0.188 0 0.373-0.009 0.556-0.027l-0.023 0.002h73.377c2.325-0.102 4.356-1.272 5.63-3.027l0.015-0.021c0.572-0.868 0.912-1.932 0.912-3.076s-0.34-2.208-0.925-3.097l0.013 0.021c-5.822-13.070-9.212-28.32-9.212-44.362 0-0.576 0.004-1.152 0.013-1.726l-0.001 0.087c1.485-67.618 56.651-121.864 124.486-121.864s123.001 54.246 124.484 121.726l0.002 0.138c0.012 0.613 0.019 1.335 0.019 2.058 0 15.9-3.394 31.007-9.497 44.636l0.277-0.693c-0.438 0.9-0.694 1.958-0.694 3.076s0.256 2.176 0.712 3.119l-0.019-0.043c1.153 1.843 3.172 3.050 5.473 3.050 0.060 0 0.121-0.001 0.181-0.002h73.368c0.16 0.016 0.345 0.025 0.533 0.025 3.117 0 5.644-2.527 5.644-5.644 0-0.188-0.009-0.373-0.027-0.556l0.002 0.023v-195.634c-1.040-29.184-24.606-52.534-53.781-53.225l-0.066-0.001zM321.051 468.941v-189.481c0.777-22.764 18.969-41.035 41.628-41.935l0.084-0.003h293.112c22.751 0.698 41.014 18.961 41.71 41.646l0.002 0.065v189.707h-58.25c4.296-12.563 6.776-27.037 6.776-42.090 0-0.304-0.001-0.607-0.003-0.911v0.047c-0.016-75.535-61.253-136.763-136.791-136.763-75.548 0-136.791 61.243-136.791 136.791 0 0.010 0 0.020 0 0.030v-0.001c-0.002 0.24-0.002 0.524-0.002 0.808 0 15.053 2.48 29.526 7.053 43.034l-0.278-0.945z" />
<glyph unicode="&#xe940;" d="M611.736 523.522c-3.373 0.062-6.090 2.78-6.152 6.146v80.946c-0.016 0.16-0.025 0.345-0.025 0.533 0 3.117 2.527 5.644 5.644 5.644 0.188 0 0.373-0.009 0.556-0.027l-0.023 0.002h80.319c3.373-0.062 6.090-2.78 6.152-6.146v-80.946c0.016-0.16 0.025-0.345 0.025-0.533 0-3.117-2.527-5.644-5.644-5.644-0.188 0-0.373 0.009-0.556 0.027l0.023-0.002zM617.888 604.405v-68.579h68.071v68.579z" />
<glyph unicode="&#xe941;" d="M655.875 183.167h-293.112c-0.287-0.003-0.625-0.005-0.964-0.005-52.994 0-95.954 42.96-95.954 95.954 0 0.339 0.002 0.678 0.005 1.016v-0.052 293.112c-0.003 0.287-0.005 0.625-0.005 0.964 0 52.994 42.96 95.954 95.954 95.954 0.339 0 0.678-0.002 1.016-0.005h293.060c0.287 0.003 0.625 0.005 0.964 0.005 53.337 0 96.575-43.238 96.575-96.575 0-0.339-0.002-0.678-0.005-1.016v0.052c0.018-0.176 0.028-0.381 0.028-0.589 0-3.398-2.755-6.152-6.152-6.152s-6.152 2.755-6.152 6.152c0 0.207 0.010 0.412 0.030 0.614l-0.002-0.026c0.003 0.27 0.005 0.589 0.005 0.908 0 46.572-37.754 84.327-84.327 84.327-0.319 0-0.638-0.002-0.957-0.005h-293.119c-0.304 0.004-0.663 0.006-1.022 0.006-46.198 0-83.649-37.451-83.649-83.649 0-0.359 0.002-0.718 0.007-1.077l-0.001 0.054v-293.507c-0.004-0.304-0.006-0.663-0.006-1.022 0-46.198 37.451-83.649 83.649-83.649 0.359 0 0.718 0.002 1.077 0.007l-0.054-0.001h293.112c0.304-0.004 0.663-0.006 1.022-0.006 46.198 0 83.649 37.451 83.649 83.649 0 0.359-0.002 0.718-0.007 1.077l0.001-0.054v146.979c-0.018 0.176-0.028 0.381-0.028 0.589 0 3.398 2.755 6.152 6.152 6.152s6.152-2.755 6.152-6.152c0-0.207-0.010-0.412-0.030-0.614l0.002 0.026v-146.753c0.004-0.338 0.007-0.738 0.007-1.139 0-52.776-42.783-95.559-95.559-95.559-0.479 0-0.957 0.004-1.434 0.011l0.072-0.001z" />
<glyph unicode="&#xe942;" d="M897.736 445.008c0-204.931-166.129-371.060-371.060-371.060s-371.060 166.129-371.060 371.060c0 204.931 166.129 371.060 371.060 371.060s371.060-166.129 371.060-371.060z" />
<glyph unicode="&#xe943;" d="M893.897 391.274l-162.275 162.332-396.629-252.303 225.774-225.774c171.206 16.354 307.578 146.792 332.874 313.691l0.256 2.055z" />
<glyph unicode="&#xe944;" d="M335.049 553.493h396.629v-252.303h-396.629v252.303z" />
<glyph unicode="&#xe945;" d="M335.049 553.606h396.629l-198.343 121.975z" />
<glyph unicode="&#xe946;" d="M391.662 598.761h283.573c0.017 0 0.037 0 0.057 0 14.745 0 26.698-11.953 26.698-26.698 0-0.020 0-0.040 0-0.060v0.003-270.929h-337.081v270.929c0 0.017 0 0.037 0 0.057 0 14.745 11.953 26.698 26.698 26.698 0.020 0 0.040 0 0.060 0h-0.003z" />
<glyph unicode="&#xe947;" d="M335.049 553.606l193.997-126.264-193.997-126.151v252.416z" />
<glyph unicode="&#xe948;" d="M335.049 301.19h396.629l-198.343 126.377z" />
<glyph unicode="&#xe949;" d="M731.622 553.606l-193.997-126.264 193.997-126.151z" />
<glyph unicode="&#xe94a;" d="M437.551 566.644h191.908v-15.748h-191.908zM437.551 511.668h191.908v-15.748h-191.908zM437.551 539.156h191.908v-15.748h-191.908z" />
<glyph unicode="&#xe94b;" d="M923.135 445.008c0-211.695-171.613-383.309-383.309-383.309s-383.309 171.613-383.309 383.309c0 211.695 171.613 383.309 383.309 383.309s383.309-171.613 383.309-383.309z" />
<glyph unicode="&#xe94c;" d="M905.299 329.017l-293.507 293.507-232.773-220.299 310.44-310.44c102.782 44.527 180.874 129.606 215.073 234.513l0.767 2.719z" />
<glyph unicode="&#xe94d;" d="M463.12 678.459c7.454 1.226 16.044 1.927 24.798 1.927 88.656 0 160.526-71.87 160.526-160.526 0-45.724-19.117-86.983-49.795-116.221l-0.065-0.061 13.151-16.143-16.933-13.772-13.038 16.030c-19.368-14.149-42.672-24.12-67.965-28.105l-0.896-0.116c-8.189-1.481-17.615-2.328-27.239-2.328-88.656 0-160.526 71.87-160.526 160.526 0 80.623 59.436 147.364 136.881 158.797l0.874 0.106zM466.111 660.059c6.636 1.1 14.284 1.728 22.078 1.728 78.369 0 141.899-63.53 141.899-141.899s-63.53-141.899-141.899-141.899c-70.545 0-129.067 51.479-140.048 118.92l-0.11 0.818c-1.102 6.645-1.732 14.301-1.732 22.105 0 70.602 51.542 129.166 119.051 140.118l0.817 0.109z" />
<glyph unicode="&#xe94e;" d="M584.417 390.54l-1.016-1.072 11.627-15.861 1.693 1.355-12.305 15.578z" />
<glyph unicode="&#xe94f;" d="M588.594 368.527l29.633 23.932c1.783 1.424 4.070 2.284 6.558 2.284 3.256 0 6.168-1.474 8.104-3.792l0.014-0.017 112.153-138.908c1.424-1.783 2.284-4.070 2.284-6.558 0-3.256-1.474-6.168-3.792-8.104l-0.017-0.014-29.633-23.932c-1.759-1.414-4.020-2.27-6.48-2.27-3.225 0-6.107 1.47-8.011 3.776l-0.014 0.018-112.379 138.908c-1.437 1.774-2.307 4.059-2.307 6.547 0 3.276 1.508 6.199 3.868 8.113l0.019 0.015z" />
<glyph unicode="&#xe950;" d="M630.532 519.909c0-78.649-63.758-142.407-142.407-142.407s-142.407 63.758-142.407 142.407c0 78.649 63.758 142.407 142.407 142.407s142.407-63.758 142.407-142.407z" />
<glyph unicode="&#xe951;" d="M588.594 368.527l2.992 2.371c-1.932-1.905-3.129-4.551-3.129-7.477 0-2.448 0.838-4.701 2.243-6.487l-0.017 0.023 111.984-139.077c1.96-2.338 4.882-3.813 8.148-3.813 1.968 0 3.811 0.536 5.391 1.47l-0.049-0.027-2.709-2.088c-1.759-1.414-4.020-2.27-6.48-2.27-3.225 0-6.107 1.47-8.011 3.776l-0.014 0.018-111.928 138.908c-1.397 1.78-2.24 4.052-2.24 6.521 0 3.27 1.479 6.194 3.804 8.141l0.017 0.014z" />
<glyph unicode="&#xe952;" d="M615.574 549.373c0-0.017 0-0.037 0-0.056 0-86.723-70.303-157.026-157.026-157.026-0.020 0-0.040 0-0.060 0h0.003c-15.787 0.004-31.037 2.292-45.441 6.553l1.133-0.287-2.258 0.621c21.535-13.778 47.801-21.962 75.978-21.962 78.649 0 142.407 63.758 142.407 142.407 0 28.178-8.184 54.444-22.304 76.551l0.342-0.573c0-0.621 0.452-1.355 0.621-2.088 4.192-12.832 6.609-27.6 6.609-42.932 0-0.424-0.002-0.848-0.006-1.272v0.065z" />
<glyph unicode="&#xe953;" d="M875.384 261.228c-0.383-101.687-82.714-184.018-184.365-184.401h-367.654c-101.687 0.383-184.018 82.714-184.401 184.365v367.654c0.383 101.687 82.714 184.018 184.365 184.401h367.654c101.687-0.383 184.018-82.714 184.401-184.365v-0.037z" />
<glyph unicode="&#xe954;" d="M505.453 654.753c-0.511 0.007-1.113 0.011-1.717 0.011-29.173 0-56.071-9.741-77.618-26.149l0.314 0.229c-16.695-13.237-29.768-30.334-37.964-49.975l-0.305-0.824s-1.185 0-1.185-0.564c-8.241-20.037-7.676-41.825-7.676-61.298v0c5.644-14.167 3.556-27.714 2.371-40.075 0.105-0.655 0.302-1.243 0.58-1.783l-0.016 0.033c-3.833-0.493-8.266-0.774-12.766-0.774-2.34 0-4.662 0.076-6.964 0.226l0.313-0.016c-4.741 0-9.426 3.556-15.296 5.306 0 0.312-0.253 0.564-0.564 0.564v0c-1.227 0.292-2.636 0.459-4.084 0.459-3.992 0-7.688-1.272-10.704-3.432l0.055 0.038c-4.482-2.542-7.606-7.029-8.233-12.284l-0.008-0.077v-1.072c0.714-3.406 2.627-6.277 5.268-8.214l0.038-0.027c1.994-1.376 3.724-2.729 5.37-4.175l-0.064 0.055v0.564c9.991-6.491 21.223-12.361 31.213-12.361v0c6.491-5.644 12.361-8.241 13.546-14.167 0.372-1.808 0.585-3.885 0.585-6.013 0-7.054-2.34-13.562-6.286-18.789l0.057 0.079c-11.428-21.969-27.353-40.151-46.667-53.874l-0.463-0.312c-9.988-6.693-21.544-12.129-33.892-15.7l-0.877-0.217h-0.564c-4.902-1.152-9.109-3.635-12.351-7.045l-0.010-0.010c0-0.564-0.564-0.564-0.564-1.185-0.28-0.953-0.441-2.047-0.441-3.179 0-2.557 0.821-4.921 2.214-6.845l-0.023 0.034c1.288-1.877 3.103-3.309 5.23-4.096l0.075-0.024c9.309-4.7 20.127-8.588 31.459-11.113l0.939-0.176c7.759-1.271 14.51-2.92 21.057-5.024l-1.019 0.283c0.468-2.020 1.288-3.797 2.401-5.35l-0.030 0.045c1.75-5.644 2.935-12.361 4.741-19.417 0.738-1.904 2.216-3.382 4.072-4.104l0.048-0.017c0.917-0.268 1.97-0.423 3.060-0.423 1.672 0 3.259 0.364 4.687 1.016l-0.071-0.029h0.564c17.667 2.935 34.769 5.644 50.799 1.75v0c16.482-4.12 30.649-15.917 47.13-25.908h-0.564c11.392-8.025 25.329-13.183 40.404-14.155l0.235-0.012-0.564-1.185c11.289-0.564 20.602-0.564 31.213-0.564v0c8.862 5.644 17.667 5.306 25.343 9.991 0 0.312 0.253 0.564 0.564 0.564v0c16.933 9.991 32.399 21.787 49.501 29.464v0c5.836 1.386 12.561 2.224 19.467 2.314l0.062 0.001c2.046 0.060 4.452 0.095 6.867 0.095 12.332 0 24.454-0.896 36.306-2.627l-1.348 0.162h1.185c1.891 0.178 3.549 1.054 4.736 2.364l0.006 0.006c0.733 0.691 1.19 1.669 1.19 2.754 0 0.064-0.002 0.127-0.005 0.19v-0.009c0.564 1.185 0.564 2.371 0 1.185 0 0.564 0.564 0.564 0.564 1.185 1.451 7.794 4.328 14.721 8.369 20.808l-0.129-0.206c1.775 1.611 4.143 2.597 6.741 2.597 0.751 0 1.483-0.082 2.188-0.239l-0.067 0.012h0.564c12.394 2.007 23.494 5.289 33.95 9.782l-0.931-0.356h0.564c5.361 1.885 9.91 4.925 13.526 8.839l0.020 0.022c1.136 1.513 1.819 3.423 1.819 5.492 0 3.45-1.898 6.456-4.708 8.031l-0.046 0.024h-2.935c-3.902 2.248-8.417 4.071-13.192 5.233l-0.354 0.073h0.564c-24.351 8.57-44.606 23.69-59.259 43.25l-0.233 0.325c-7.886 10.392-14.792 22.228-20.188 34.863l-0.414 1.092c-0.827 2.074-1.307 4.477-1.307 6.992 0 3.017 0.69 5.874 1.922 8.419l-0.050-0.115c5.363 6.084 12.357 10.612 20.299 12.907l0.303 0.075c10.645 3 19.902 7.869 27.862 14.283l-0.149-0.116c1.168 1.527 2.157 3.279 2.886 5.161l0.049 0.145c1.185 2.371 4.741 5.644-0.564 9.426v0c0.025 0.265 0.039 0.572 0.039 0.883 0 4.711-3.26 8.66-7.647 9.714l-0.068 0.014h-16.482c-3.97-1.465-8.903-2.885-13.958-3.98l-0.774-0.141c-0.779-0.044-1.691-0.069-2.609-0.069-4.925 0-9.68 0.727-14.164 2.078l0.347-0.090v3.951c-0.564 11.797-1.75 20.037-1.75 31.213v0c0 16.482 2.371 33.584 0 50.799h0.564c-6.229 29.724-23.283 54.668-46.758 71.042l-0.373 0.246c-17.159 11.797-37.196 16.030-57.798 21.674v0c-7.055 0-14.167-0.452-20.602-0.452z" />
<glyph unicode="&#xe955;" d="M690.983 70.9h-367.617c-105.026 0.192-190.111 85.297-190.271 190.312v367.633c0.321 104.91 85.344 189.854 190.253 190.046h367.635c105.007-0.192 190.079-85.265 190.271-190.253v-367.409c-0.16-105.031-85.245-190.135-190.253-190.328h-0.019zM323.365 807.602c-98.603-0.161-178.475-80.131-178.475-178.757 0 0 0 0 0 0v0-367.617c0.128-98.548 79.983-178.403 178.519-178.531h367.629c98.548 0.128 178.403 79.983 178.531 178.519v367.629c0 98.665-79.936 178.661-178.579 178.757h-0.009z" />
<glyph unicode="&#xe956;" d="M678.057 106.29h-341.71c-92.243 1.224-166.696 75.677-167.919 167.804l-0.001 0.116v341.484c0.914 92.404 75.53 167.079 167.824 168.088l0.096 0.001h340.524c3.258 0 5.898-2.641 5.898-5.898s-2.641-5.898-5.898-5.898v0h-340.524c-85.85-1.070-155.148-70.428-156.122-156.199l-0.001-0.093v-341.71c1.222-85.729 70.394-154.901 156.007-156.122l0.116-0.001h341.71c85.729 1.222 154.901 70.394 156.122 156.007l0.001 0.116v165.154c0 3.258 2.641 5.898 5.898 5.898s5.898-2.641 5.898-5.898v0-164.985c-1.040-92.307-75.608-166.855-167.824-167.862l-0.096-0.001z" />
<glyph unicode="&#xe957;" d="M791.17 722.937c-0.010 0-0.023 0-0.035 0-1.606 0-3.056 0.671-4.083 1.748l-0.002 0.002c-29.816 28.643-70.195 46.485-114.737 47.129l-0.126 0.001c-3.258 0-5.898 2.641-5.898 5.898s2.641 5.898 5.898 5.898v0c47.957-0.6 91.301-19.862 123.204-50.842l-0.044 0.042c1.101-1.033 1.787-2.496 1.787-4.12s-0.686-3.088-1.784-4.118l-0.003-0.003c-0.845-1.029-2.117-1.681-3.542-1.681-0.224 0-0.444 0.016-0.659 0.047l0.025-0.003z" />
<glyph unicode="&#xe958;" d="M840.050 474.585c-3.117 0-5.644 2.527-5.644 5.644v0 87.375c0 3.258 2.641 5.898 5.898 5.898s5.898-2.641 5.898-5.898v0-87.375c0-0.007 0-0.015 0-0.023 0-3.117-2.527-5.644-5.644-5.644-0.179 0-0.356 0.008-0.53 0.025l0.022-0.002z" />
<glyph unicode="&#xe959;" d="M510.137 214.944h-5.644c-30.649 0-51.251 14.732-67.732 25.908-11.289 7.676-20.037 14.167-30.028 15.917-4.087 0.789-8.787 1.241-13.593 1.241-1.016 0-2.027-0.020-3.033-0.060l0.144 0.005c-0.008 0-0.018 0-0.028 0-7.986 0-15.771-0.863-23.266-2.502l0.717 0.132h-0.79c-3.424-0.848-7.457-1.471-11.588-1.739l-0.209-0.011c-0.198-0.008-0.431-0.012-0.665-0.012-8.407 0-15.486 5.691-17.593 13.431l-0.030 0.128c-0.873 2.705-1.696 6.069-2.3 9.508l-0.070 0.482-0.564 1.185c-0.617 1.659-1.039 3.579-1.181 5.577l-0.004 0.067c-16.189 2.051-30.898 6.196-44.607 12.2l1.033-0.403c-8.177 3.112-14.743 8.91-18.759 16.295l-0.093 0.186v0.564c-0.643 1.917-1.068 4.134-1.183 6.432l-0.002 0.059c-0.016 0.271-0.026 0.589-0.026 0.908 0 8.228 6.156 15.019 14.114 16.017l0.079 0.008c14.248 2.445 26.947 7.609 38.074 14.961l-0.369-0.229c10.359 6.742 19.272 14.542 26.958 23.434l0.135 0.16c8.84 10.013 16.391 21.465 22.208 33.892l0.369 0.877v0.564c0 0.312 0.253 0.564 0.564 0.564v0c1.549 2.508 2.468 5.548 2.468 8.802 0 0.637-0.035 1.266-0.104 1.886l0.007-0.076c-2.371 5.306-14.732 9.426-21.223 11.797l-1.75 0.564c-2.371 0.564-4.12 1.185-5.644 1.75-7.432 2.949-13.847 6.752-19.551 11.395l0.134-0.106c-5.262 4.171-8.607 10.563-8.607 17.736 0 1.432 0.133 2.833 0.388 4.191l-0.022-0.14c1.793 7.239 6.533 13.125 12.843 16.415l0.139 0.066c4.623 2.865 10.23 4.563 16.233 4.563 4.134 0 8.080-0.805 11.69-2.267l-0.209 0.075c5.291-2.896 11.575-4.64 18.257-4.741h1.216c0.018 0.284 0.028 0.616 0.028 0.95 0 1.55-0.216 3.050-0.62 4.47l0.028-0.115v0.564c-1.75 31.834-4.741 71.853 6.491 95.954 7.484 16.446 17.207 30.523 28.984 42.588l-0.029-0.030c9.979 9.632 21.675 17.567 34.57 23.291l0.763 0.302c16.306 7.226 35.302 11.541 55.277 11.796l0.095 0.001h8.862c20.070-0.255 39.066-4.571 56.295-12.16l-0.924 0.363c13.81-6.271 25.676-14.18 36.057-23.686l-0.102 0.092c12.321-11.864 22.418-25.935 29.673-41.591l0.355-0.855c11.289-24.158 8.241-64.233 6.491-95.954v-1.75c0.030-0.272 0.047-0.587 0.047-0.907 0-1.157-0.225-2.261-0.633-3.272l0.021 0.059h0.564c6.405 1.11 12.092 2.756 17.501 4.944l-0.568-0.203c3.168 1.509 6.884 2.39 10.806 2.39 0.348 0 0.695-0.007 1.040-0.021l-0.050 0.002c0.255 0.008 0.556 0.013 0.857 0.013 4.159 0 8.114-0.877 11.689-2.456l-0.185 0.073c10.227-3.016 17.674-12.048 18.285-22.906l0.003-0.066c-0.043-6.613-2.73-12.59-7.056-16.934l0.001 0.001c-5.643-5.412-12.441-9.666-19.984-12.352l-0.392-0.122c-1.509-0.697-3.281-1.299-5.123-1.715l-0.183-0.035h-2.371c-6.491-2.371-18.852-5.644-21.223-11.797-1.185-2.371-0.564-5.644 1.75-11.289 0.055-0.465 0.26-0.874 0.565-1.186v0c5.644-12.361 33.020-63.612 86.585-72.474 8.071-1.066 14.235-7.903 14.235-16.179 0-0.524-0.025-1.042-0.073-1.553l0.005 0.065c-0.118-2.357-0.543-4.574-1.236-6.668l0.051 0.177c-3.937-7.706-10.567-13.565-18.619-16.41l-0.233-0.072c-12.677-5.601-27.386-9.746-42.776-11.713l-0.798-0.083c-0.672-1.665-1.099-3.593-1.184-5.609l-0.001-0.035-0.564-2.935c-0.485-3.086-1.312-5.858-2.456-8.458l0.085 0.217c-1.945-7.534-8.68-13.010-16.694-13.010-0.342 0-0.682 0.010-1.020 0.030l0.047-0.002c-4.532 0.176-8.794 0.601-12.975 1.266l0.614-0.080c-6.898 1.49-14.83 2.352-22.959 2.371h-0.014c-5.905-0.089-11.614-0.517-17.222-1.266l0.741 0.081c-9.991-1.75-19.417-8.241-30.028-15.917-17.215-11.966-37.817-25.851-68.466-25.851zM389.969 269.751c0.141 0.001 0.307 0.001 0.474 0.001 6.304 0 12.458-0.637 18.403-1.851l-0.589 0.101c12.361-2.371 22.973-9.426 34.769-17.667 16.482-11.797 34.148-24.158 61.298-24.158h5.306c27.093 0 44.76 12.982 60.677 24.158 11.797 8.241 22.577 15.917 35.334 17.667 5.723 1.123 12.304 1.765 19.035 1.765 8.711 0 17.17-1.076 25.253-3.102l-0.714 0.152c2.824-0.753 6.065-1.185 9.408-1.185 0.006 0 0.013 0 0.019 0h-0.001c0.189-0.021 0.409-0.033 0.631-0.033 2.877 0 5.279 2.030 5.853 4.736l0.007 0.039c0.564 2.935 1.185 5.306 1.75 7.676l0.564 2.935c1.185 5.306 2.371 8.862 2.935 11.289 0.862 1.898 2.614 3.257 4.709 3.552l0.032 0.004c16.205 2.064 30.916 6.027 44.736 11.712l-1.161-0.423c5.631 1.771 10.19 5.559 12.924 10.497l0.058 0.114c0.388 0.643 0.618 1.419 0.618 2.25 0 0.242-0.020 0.479-0.057 0.711l0.003-0.025c-0.060 2.522-1.765 4.63-4.081 5.296l-0.040 0.010c-60.677 9.991-90.31 68.353-95.446 79.529 0 0.564-0.564 0.564-0.564 1.185-2.301 3.632-3.667 8.054-3.667 12.795 0 2.795 0.475 5.479 1.348 7.976l-0.052-0.169c4.12 10.611 18.852 15.296 28.843 18.288l2.371 0.564c1.197 0.554 2.585 0.97 4.041 1.176l0.080 0.009c6.401 2.283 11.893 5.685 16.507 10.014l-0.025-0.023c2.285 2.075 3.807 4.955 4.116 8.189l0.004 0.051c0 4.741-4.12 9.426-11.289 11.797-2.323 1.106-5.049 1.752-7.925 1.752-0.111 0-0.222-0.001-0.332-0.003h0.017c-0.129 0.003-0.28 0.005-0.433 0.005-2.378 0-4.655-0.437-6.754-1.234l0.131 0.044c-6.17-3.204-13.415-5.245-21.096-5.639l-0.127-0.005h-1.185c-2.995 0.117-5.811 0.749-8.406 1.809l0.165-0.060c-2.085 1.073-3.499 3.187-3.556 5.637v2.943c-0.011 0.291-0.018 0.632-0.018 0.975 0 1.954 0.212 3.858 0.615 5.691l-0.032-0.175v1.298c1.75 30.649 4.12 68.918-5.306 90.31-6.791 15.134-15.914 28.034-27.063 38.86l-0.030 0.029c-9.167 8.667-19.891 15.809-31.688 20.947l-0.711 0.276c-14.884 6.705-32.266 10.612-50.56 10.612-0.084 0-0.168 0-0.252 0h-8.566c-0.169 0.001-0.369 0.001-0.569 0.001-18.182 0-35.451-3.908-51.013-10.929l0.783 0.316c-12.508-5.414-23.231-12.556-32.451-21.272l0.052 0.049c-11.179-10.855-20.302-23.755-26.777-38.107l-0.316-0.783c-9.991-21.787-7.676-60.112-5.306-90.705v-0.564c0-3.556 0.564-7.055 0.564-10.611-0.057-2.457-1.471-4.571-3.52-5.627l-0.036-0.017c-8.862-3.556-20.037-2.371-33.020 4.12-1.859 0.601-3.997 0.947-6.217 0.947-3.773 0-7.312-1-10.367-2.75l0.102 0.054c-3.563-1.707-6.174-4.912-7.039-8.776l-0.016-0.085c-0.052-0.408-0.082-0.879-0.082-1.358 0-3.814 1.892-7.186 4.788-9.23l0.036-0.024c4.58-3.525 9.836-6.511 15.484-8.713l0.433-0.149c1.266-0.583 2.839-1.177 4.454-1.674l0.288-0.076 1.75-0.564c9.991-2.935 24.158-7.676 28.843-18.288 0.822-2.264 1.297-4.877 1.297-7.601 0-4.622-1.368-8.924-3.722-12.524l0.054 0.088v-0.564c-6.506-14.614-14.603-27.195-24.312-38.336l0.154 0.18c-17.748-21.489-42.392-36.722-70.509-42.316l-0.779-0.129c-2.37-0.487-4.127-2.557-4.127-5.036 0-0.095 0.003-0.189 0.008-0.282l-0.001 0.013c-0.015-0.152-0.024-0.328-0.024-0.506 0-0.887 0.218-1.723 0.603-2.458l-0.014 0.029c3.026-4.689 7.514-8.208 12.812-9.942l0.17-0.048c12.898-5.552 27.855-9.539 43.501-11.228l0.694-0.061c1.893-0.014 3.501-1.22 4.111-2.904l0.010-0.031c1.389-3.187 2.613-6.959 3.478-10.867l0.078-0.422 0.564-1.75c0.679-3.698 1.5-6.867 2.519-9.944l-0.149 0.518c1.185-3.556 2.935-4.741 7.055-4.741 3.404 0.115 6.642 0.541 9.772 1.251l-0.346-0.066h0.564c7.138 1.327 15.536 2.239 24.091 2.532l0.292 0.008z" />
<glyph unicode="&#xe95a;" d="M874.142 262.865c-0.32-102.43-83.27-185.38-185.669-185.699h-370.244c-102.43 0.32-185.38 83.27-185.699 185.669v369.792c0.349 102.532 83.213 185.594 185.636 186.264h370.447c102.628-0.321 185.699-83.591 185.699-186.263 0 0 0 0 0-0.001v0z" />
<glyph unicode="&#xe95b;" d="M729.364 544.123s-4.177 33.245-17.78 48.034c-11.738 12.377-27.993 20.37-46.113 21.328l-0.17 0.007c-65.249 4.741-161.993 5.362-161.993 5.362v0s-97.309-0.621-161.993-5.362c-18.25-0.651-34.551-8.486-46.259-20.745l-0.025-0.026c-13.659-14.845-16.933-48.034-16.933-48.034s-3.556-39.172-3.556-78.287v-36.971c0-39.172 3.556-78.287 3.556-78.287s4.177-33.245 17.78-48.034c17.78-18.965 40.357-18.401 50.799-20.771 36.801-3.556 157.195-4.741 157.195-4.741s97.309 0 161.993 4.741c8.918 1.185 28.222 1.185 46.284 20.15 13.659 14.845 16.933 48.034 16.933 48.034s3.556 39.172 3.556 78.287v36.971c0 39.172-3.556 78.287-3.556 78.287zM455.895 385.122v135.465l124.571-67.732z" />
<glyph unicode="&#xe95c;" d="M688.612 71.239h-370.383c0 0 0 0 0 0-105.988 0-191.908 85.92-191.908 191.908 0 0.119 0 0.238 0 0.357v-0.018 369.649c0 105.988 85.92 191.908 191.908 191.908v0h370.383c0 0 0.001 0 0.002 0 105.69 0 191.425-85.438 191.906-191.016v-370.542c0-0.101 0-0.22 0-0.339 0-105.988-85.92-191.908-191.908-191.908 0 0 0 0 0 0v0zM318.229 812.852c-99.201-0.16-179.58-80.519-179.773-179.698v-370.232c0-0.001 0-0.001 0-0.002 0-99.456 80.384-180.137 179.727-180.617h370.429c99.334 0.225 179.773 80.802 179.773 180.168 0 0.159 0 0.318-0.001 0.477v-0.025 370.214c-0.225 98.991-80.524 179.152-179.547 179.152-0.079 0-0.159 0-0.238 0h-370.371z" />
<glyph unicode="&#xe95d;" d="M675.404 106.855h-344.306c-91.947 0-169.331 77.723-169.331 169.669v344.306c0 91.382 77.102 168.484 169.331 168.484h342.951c3.273 0 5.927-2.653 5.927-5.927s-2.653-5.927-5.927-5.927v0h-342.782c-86.285-0.972-156-70.549-157.194-156.687l-0.001-0.113v-344.306c0-85.456 72.361-158.042 157.195-158.042h344.306c85.456 0 157.195 72.361 157.195 158.042v165.718c0 3.273 2.653 5.927 5.927 5.927s5.927-2.653 5.927-5.927v-166.114c-1.256-92.924-76.284-167.913-169.105-169.104l-0.113-0.001z" />
<glyph unicode="&#xe95e;" d="M789.307 728.581c-0.011 0-0.025 0-0.038 0-1.633 0-3.105 0.694-4.135 1.803l-0.003 0.004c-28.446 28.903-67.832 46.965-111.438 47.468l-0.095 0.001c-3.273 0-5.927 2.653-5.927 5.927s2.653 5.927 5.927 5.927v0c46.858-0.454 89.15-19.633 119.826-50.4l0.004-0.004c1.119-1.035 1.817-2.51 1.817-4.149s-0.698-3.114-1.813-4.145l-0.004-0.003c-0.606-1.452-2.014-2.454-3.657-2.454-0.163 0-0.325 0.010-0.483 0.029l0.019-0.002z" />
<glyph unicode="&#xe95f;" d="M838.526 477.689c-0.087-0.005-0.188-0.007-0.29-0.007-3.117 0-5.644 2.527-5.644 5.644 0 0.102 0.003 0.203 0.008 0.304l-0.001-0.014v87.77c0 3.273 2.653 5.927 5.927 5.927s5.927-2.653 5.927-5.927v0-87.77c0.005-0.087 0.007-0.188 0.007-0.29 0-3.117-2.527-5.644-5.644-5.644-0.102 0-0.203 0.003-0.304 0.008l0.014-0.001z" />
<glyph unicode="&#xe960;" d="M455.274 379.195c-0.194-0.030-0.417-0.047-0.644-0.047-0.869 0-1.68 0.249-2.366 0.679l0.019-0.011c-1.806 1.107-2.992 3.070-2.992 5.31 0 0.018 0 0.036 0 0.055v-0.003 135.465c0 0.015 0 0.034 0 0.052 0 2.24 1.186 4.203 2.965 5.295l0.027 0.015c0.843 0.528 1.866 0.84 2.963 0.84s2.121-0.313 2.987-0.854l-0.024 0.014 48.034-26.077c1.886-1.062 3.138-3.052 3.138-5.334 0-3.37-2.732-6.102-6.102-6.102-1.088 0-2.109 0.285-2.994 0.784l0.030-0.016-39.172 21.336v-115.709l116.33 62.765c0.854 0.483 1.875 0.768 2.963 0.768 3.37 0 6.102-2.732 6.102-6.102 0-2.282-1.253-4.271-3.108-5.318l-0.030-0.016-125.135-67.224c-0.73-0.369-1.592-0.586-2.503-0.586-0.172 0-0.342 0.008-0.51 0.023l0.022-0.002z" />
<glyph unicode="&#xe961;" d="M502.743 271.783v0c-4.741 0-121.015 1.185-158.042 4.741-2.371 0.621-4.177 0.621-6.547 1.185-11.853 1.806-32.060 4.177-48.034 21.336-14.845 16.030-18.401 49.84-18.965 50.799s-3.556 39.511-3.556 79.021v36.914c0 38.551 3.556 78.287 3.556 79.021 0 1.806 4.177 35.616 19.586 51.589 11.857 13.083 28.583 21.565 47.296 22.57l0.173 0.007h1.806c64.684 4.741 161.372 5.362 162.558 5.362s98.494-0.621 162.558-5.362h2.371c18.913-0.886 35.679-9.401 47.412-22.513l0.057-0.065c14.845-16.030 18.965-49.84 18.965-51.589 0-0.621 4.177-40.357 4.177-79.021v-36.801c0-39.172-4.177-78.287-4.177-79.021 0-1.806-4.741-35.616-19.586-51.589-11.753-12.78-28.255-21.035-46.688-21.95l-0.16-0.006c-0.117 0.009-0.254 0.014-0.392 0.014-0.95 0-1.845-0.235-2.631-0.649l0.031 0.015c-63.273-3.387-160.582-4.007-161.767-4.007zM503.364 612.928c-1.185 0-97.309-0.621-161.372-5.362h-1.806c-15.999-0.922-30.18-8.022-40.324-18.928l-0.034-0.037c-10.103-10.668-15.409-35.616-16.594-44.478 0 0-3.556-39.172-3.556-77.102v-36.801c0-38.551 3.556-77.102 3.556-77.723s3.556-31.439 15.409-44.478c10.558-10.475 24.904-17.145 40.803-17.776l0.118-0.004c2.371-0.621 4.741-0.621 6.547-1.185 35.616-3.556 153.64-4.741 156.010-4.741s97.873 0 161.372 4.741c0.067-0.003 0.146-0.004 0.226-0.004 1.005 0 1.957 0.231 2.804 0.642l-0.038-0.017c15.596 0.577 29.458 7.546 39.125 18.348l0.046 0.053c12.474 13.038 16.594 44.478 16.594 44.478s4.177 39.172 4.177 77.102v36.124c0.012 1.471 0.018 3.211 0.018 4.953 0 25.636-1.442 50.936-4.249 75.822l0.28-3.052s-3.556 31.439-16.030 44.478c-10.026 11.101-24.368 18.14-40.358 18.456l-0.056 0.001h-2.371c-63.048 5.306-159.735 6.491-160.356 6.491z" />
</font>
</defs>
</svg>
